# xmcd
#
# Track frame offsets:
#	150
#	22685
#	40519
#	59057
#	81289
#	102134
#	119886
#	139343
#	154679
#	176176
#	195550
#
# Disc length: 2888 seconds
# Revision: 2
# Processed by: cddbd v1.5.2PL0 Copyright (c) Steve Scherf et al.
# Submitted via: dBpowerAMP V12.0
#
DISCID=940b460b
DTITLE=Charlie Major - Shadows And Light
DYEAR=2006
DGENRE=Canadian
TTITLE0=Simple Plan
TTITLE1=Better World
TTITLE2=That's When I Feel Loved
TTITLE3=You'll See Angels
TTITLE4=There's No Easy Way To Say Goodbye
TTITLE5=Young at Heart (with Kim Mitchell)
TTITLE6=Whispering Your Name
TTITLE7=True Love Street
TTITLE8=Shadows and Light
TTITLE9=Already Gone
TTITLE10=Mandy
EXTD=
EXTT0=
EXTT1=
EXTT2=
EXTT3=
EXTT4=
EXTT5=
EXTT6=
EXTT7=
EXTT8=
EXTT9=
EXTT10=
PLAYORDER=
